<?xml version="1.0" standalone="no"?>
<!DOCTYPE svg PUBLIC "-//W3C//DTD SVG 20010904//EN"
 "http://www.w3.org/TR/2001/REC-SVG-20010904/DTD/svg10.dtd">
<svg version="1.0" xmlns="http://www.w3.org/2000/svg"
 width="1010.000000pt" height="966.000000pt" viewBox="0 0 1010.000000 966.000000"
 preserveAspectRatio="xMidYMid meet">
<metadata>
Created by potrace 1.14, written by Peter Selinger 2001-2017
</metadata>
<g transform="translate(0.000000,966.000000) scale(0.100000,-0.100000)"
fill="#61DAFB" stroke="none">
<path d="M3282 9630 c-28 -10 -64 -28 -80 -40 -97 -75 -171 -130 -225 -167
-34 -23 -69 -49 -77 -56 -8 -8 -29 -22 -47 -30 -17 -9 -33 -20 -35 -25 -1 -5
-37 -28 -78 -52 -41 -24 -93 -55 -115 -70 -22 -15 -65 -40 -95 -55 -30 -16
-96 -52 -147 -82 -51 -29 -95 -53 -99 -53 -3 0 -50 -21 -103 -46 -53 -25 -136
-62 -186 -82 -49 -19 -99 -41 -110 -49 -11 -7 -26 -13 -35 -13 -8 0 -28 -12
-45 -26 -16 -14 -37 -31 -45 -38 -58 -43 -93 -192 -65 -271 27 -76 45 -99 139
-179 27 -22 63 -55 80 -71 88 -84 182 -155 214 -161 56 -11 127 3 185 36 l55
31 21 -36 c11 -20 21 -40 21 -45 0 -4 3 -10 8 -12 4 -1 16 -21 27 -43 11 -22
22 -42 25 -45 9 -9 51 -85 57 -102 3 -10 9 -18 14 -18 5 0 9 -6 9 -13 0 -7 11
-28 23 -47 23 -34 54 -88 93 -160 11 -19 21 -37 24 -40 4 -4 24 -39 54 -95 6
-11 13 -22 16 -25 3 -3 14 -23 25 -45 11 -22 22 -42 25 -45 3 -3 14 -22 25
-43 11 -21 27 -46 36 -56 9 -9 31 -44 49 -76 18 -32 41 -68 51 -79 11 -11 19
-23 19 -26 0 -4 9 -18 20 -31 24 -29 27 -34 64 -84 17 -22 47 -58 67 -80 21
-22 46 -51 57 -65 28 -36 118 -126 193 -192 35 -32 84 -75 109 -98 25 -22 48
-40 52 -40 4 0 20 -12 37 -27 16 -16 44 -39 62 -53 18 -14 40 -33 48 -42 9
-10 21 -18 27 -18 7 0 14 -3 16 -7 2 -5 26 -26 53 -47 52 -41 106 -96 140
-142 11 -16 27 -35 35 -44 18 -20 50 -78 50 -91 0 -12 50 -88 75 -113 14 -15
33 -20 73 -21 47 0 57 3 81 31 33 36 32 37 95 -81 6 -11 13 -22 16 -25 3 -3
14 -23 25 -45 11 -22 22 -42 25 -45 4 -4 24 -38 54 -95 6 -11 13 -22 16 -25 3
-3 14 -23 25 -45 11 -22 22 -42 25 -45 3 -3 13 -21 24 -40 39 -72 70 -126 93
-160 12 -19 23 -39 23 -45 0 -5 9 -21 20 -35 23 -29 25 -44 7 -62 -27 -27 -47
-63 -47 -83 0 -11 -13 -32 -29 -47 -16 -15 -31 -42 -35 -60 l-6 -33 -450 -3
c-248 -2 -450 0 -450 4 0 4 8 12 17 19 11 8 16 27 16 60 0 41 -4 52 -30 76
-31 27 -33 27 -175 29 -129 1 -174 6 -245 24 -13 3 -31 8 -42 10 -10 2 -50 18
-90 35 -39 17 -72 30 -74 30 -4 -1 -62 23 -89 38 -16 8 -28 11 -28 7 0 -3 -11
1 -25 10 -13 9 -36 17 -50 18 -14 1 -25 5 -25 9 0 6 -23 15 -60 24 -3 0 -36
12 -75 25 -38 13 -73 23 -77 22 -5 -1 -8 3 -8 10 0 6 -3 9 -6 6 -3 -4 -20 -2
-37 4 -18 5 -45 12 -62 15 -16 3 -38 9 -47 14 -9 5 -21 8 -25 7 -4 -1 -21 1
-38 5 -65 16 -81 19 -120 24 -22 3 -52 6 -67 7 -16 0 -28 4 -28 7 0 3 -12 6
-27 6 -16 1 -64 5 -108 9 -44 4 -333 8 -641 8 l-562 1 -4 80 c-3 52 -12 93
-24 116 -19 37 -79 87 -111 94 -10 2 -49 15 -86 28 -37 14 -71 26 -75 26 -4 1
-36 11 -72 23 -36 12 -67 23 -70 23 -3 1 -25 7 -50 15 -72 21 -150 15 -196
-15 -13 -8 -24 -12 -24 -8 0 4 -21 -13 -46 -37 -94 -91 -105 -162 -65 -442 43
-302 43 -832 0 -1153 -40 -297 -32 -349 66 -445 25 -24 45 -41 45 -37 0 4 11
0 25 -9 14 -9 25 -13 25 -10 0 4 10 1 22 -5 24 -13 109 -16 127 -5 6 4 20 9
31 12 44 9 58 13 122 37 38 14 68 23 68 21 0 -3 14 2 30 11 17 9 30 13 30 10
0 -2 24 6 54 19 30 13 57 22 60 19 2 -3 24 15 48 39 50 49 68 99 68 184 l0 59
513 1 c467 1 642 6 767 20 25 3 61 7 80 9 19 2 51 7 70 11 19 4 42 8 50 9 8 1
31 5 50 10 19 5 42 9 50 10 8 1 35 8 60 15 25 8 48 13 53 12 4 -1 24 5 45 14
20 8 45 18 55 20 9 2 25 6 35 8 9 2 35 12 56 21 22 9 48 19 58 21 10 2 27 6
37 8 11 3 31 12 45 21 14 10 26 14 26 10 0 -4 11 0 25 9 14 9 25 14 25 11 0
-3 15 2 33 12 17 9 38 18 45 20 6 2 18 4 25 6 6 2 27 11 45 20 17 10 32 15 32
12 0 -3 11 2 25 11 14 9 25 14 25 11 0 -3 15 0 34 8 32 13 52 19 121 31 17 3
89 7 160 9 164 4 159 3 191 36 21 22 27 38 27 73 0 25 -6 52 -13 61 -12 14 25
16 425 13 l438 -3 14 -42 c9 -27 25 -49 43 -60 17 -10 30 -28 34 -47 4 -17 19
-43 34 -59 15 -16 23 -31 17 -35 -6 -4 -19 -23 -29 -42 -11 -19 -30 -55 -43
-80 -14 -24 -33 -56 -42 -70 -10 -14 -25 -38 -33 -55 -24 -48 -53 -100 -58
-105 -3 -3 -10 -14 -16 -25 -6 -11 -26 -47 -44 -80 -18 -33 -38 -69 -44 -80
-6 -11 -13 -22 -16 -25 -9 -9 -51 -85 -57 -102 -3 -10 -9 -18 -14 -18 -5 0 -9
-5 -9 -11 0 -7 -10 -27 -22 -47 -21 -35 -22 -35 -30 -11 -5 13 -16 31 -24 41
-21 23 -87 33 -116 17 -28 -15 -66 -57 -74 -83 -4 -11 -21 -42 -38 -70 -17
-28 -38 -64 -46 -79 -23 -46 -128 -146 -269 -256 -131 -102 -167 -132 -200
-161 -9 -8 -45 -39 -79 -68 -67 -58 -213 -202 -204 -202 3 0 -6 -10 -19 -23
-24 -22 -61 -67 -107 -126 -13 -16 -36 -44 -52 -63 -16 -18 -30 -38 -30 -45 0
-7 -6 -16 -12 -20 -7 -4 -22 -24 -32 -43 -11 -19 -27 -42 -35 -50 -9 -8 -21
-24 -27 -35 -6 -11 -26 -47 -44 -80 -18 -33 -38 -69 -44 -80 -6 -11 -13 -22
-16 -25 -3 -3 -13 -21 -24 -40 -39 -72 -70 -126 -93 -160 -12 -19 -23 -38 -23
-43 0 -4 -16 -31 -35 -60 -19 -28 -35 -55 -35 -59 0 -4 -16 -32 -35 -62 -19
-30 -35 -60 -35 -66 0 -5 -4 -10 -9 -10 -5 0 -11 -8 -14 -17 -3 -10 -24 -49
-47 -88 -23 -38 -44 -78 -47 -87 -3 -10 -9 -18 -14 -18 -5 0 -9 -7 -9 -14 0
-11 -20 -5 -75 23 -62 32 -83 38 -126 36 -72 -4 -83 -10 -207 -122 -14 -13
-30 -23 -35 -23 -6 0 -7 -3 -4 -6 3 -4 -17 -25 -44 -47 -150 -119 -191 -180
-193 -282 -1 -103 16 -148 80 -211 30 -30 59 -55 64 -55 18 -2 24 -5 94 -38
38 -18 74 -34 80 -36 21 -4 51 -17 106 -45 30 -15 89 -42 130 -60 41 -18 116
-57 167 -86 51 -30 96 -54 100 -54 5 0 33 -16 63 -36 30 -20 98 -61 150 -91
52 -30 97 -58 100 -62 3 -5 23 -20 45 -34 93 -61 182 -124 209 -150 48 -45
142 -107 207 -137 54 -25 151 -15 228 23 55 27 107 95 126 164 5 16 9 33 11
38 3 11 9 39 25 125 15 79 19 99 30 150 23 98 22 137 -1 182 -26 51 -67 91
-120 118 -38 20 -60 40 -42 40 5 0 12 8 15 18 6 17 48 93 57 102 4 4 24 39 54
95 6 11 13 22 16 25 3 3 13 21 24 40 39 72 70 126 93 160 12 19 23 38 23 42 0
4 16 32 35 62 19 30 35 58 35 61 0 4 8 19 19 33 15 23 39 64 95 167 6 11 14
22 17 25 3 3 11 21 19 40 8 19 23 51 35 70 27 44 95 185 95 197 0 5 8 27 19
49 19 40 79 208 87 247 8 35 10 40 22 77 6 19 13 49 16 65 3 17 7 40 10 53 10
37 13 55 21 102 4 25 9 54 12 65 4 19 6 34 18 120 3 22 7 54 10 70 3 17 7 46
10 65 10 84 25 172 32 190 6 15 11 30 16 52 2 7 11 30 20 51 9 20 24 53 33 73
9 20 23 43 32 53 10 9 27 35 39 56 52 96 23 191 -63 200 -21 2 -40 4 -42 4 -1
1 13 26 33 56 19 31 35 58 35 60 0 3 18 34 40 69 22 35 40 66 40 69 0 4 16 31
35 61 19 30 35 58 35 61 0 3 20 36 45 73 25 37 45 72 45 79 0 7 4 13 9 13 5 0
11 8 14 18 6 17 48 93 57 102 5 5 31 51 56 98 8 15 14 22 14 16 0 -18 70 -32
107 -21 19 6 42 6 59 0 33 -11 104 3 104 21 0 6 6 -1 14 -16 25 -47 51 -93 56
-98 9 -9 51 -85 57 -102 3 -10 9 -18 14 -18 5 0 9 -6 9 -13 0 -7 20 -42 45
-79 25 -37 45 -70 45 -73 0 -3 16 -31 35 -61 19 -30 35 -57 35 -61 0 -3 18
-34 40 -69 22 -35 40 -66 40 -69 0 -2 16 -29 35 -60 20 -30 34 -55 33 -56 -2
0 -21 -2 -42 -4 -86 -9 -115 -104 -63 -200 12 -21 29 -47 39 -56 9 -10 23 -33
32 -53 9 -20 24 -53 33 -73 9 -21 18 -44 20 -50 5 -23 10 -38 16 -53 7 -18 22
-106 32 -190 3 -19 7 -48 10 -65 3 -16 7 -48 10 -70 12 -86 14 -101 18 -120 3
-11 8 -40 12 -65 8 -47 11 -65 21 -102 3 -13 7 -36 10 -53 3 -16 10 -46 16
-65 12 -37 14 -42 22 -77 8 -39 68 -207 87 -247 11 -22 19 -44 19 -49 0 -12
68 -153 95 -197 12 -19 27 -51 35 -70 8 -19 16 -37 19 -40 3 -3 11 -14 17 -25
56 -103 80 -144 95 -167 11 -14 19 -29 19 -33 0 -3 16 -31 35 -61 19 -30 35
-58 35 -62 0 -4 11 -23 23 -42 23 -34 54 -88 93 -160 11 -19 21 -37 24 -40 4
-4 24 -39 54 -95 6 -11 13 -22 16 -25 9 -9 51 -85 57 -103 3 -9 10 -17 15 -17
18 0 -4 -20 -42 -40 -53 -27 -94 -67 -120 -118 -23 -45 -24 -84 -1 -182 11
-51 15 -71 30 -150 16 -86 22 -114 25 -125 2 -5 6 -22 11 -38 19 -69 71 -137
126 -164 77 -38 174 -48 228 -23 65 30 159 92 207 137 27 26 116 89 209 150
22 14 42 29 45 34 3 4 48 32 100 62 52 30 120 71 150 91 30 20 58 36 63 36 4
0 49 24 100 54 51 29 126 68 167 86 41 18 100 45 130 60 55 28 85 41 106 45 6
2 42 18 80 36 70 33 76 36 94 38 5 0 34 25 64 55 64 63 81 108 80 211 -2 102
-43 163 -193 282 -27 22 -47 43 -44 47 3 3 2 6 -4 6 -5 0 -21 10 -35 23 -124
112 -135 118 -207 122 -43 2 -64 -4 -126 -36 -55 -28 -75 -34 -75 -23 0 7 -4
14 -9 14 -5 0 -11 8 -14 17 -3 10 -24 50 -47 88 -23 39 -44 78 -47 88 -3 9 -9
17 -14 17 -5 0 -9 5 -9 10 0 6 -16 36 -35 66 -19 30 -35 58 -35 62 0 4 -16 31
-35 59 -19 29 -35 56 -35 60 0 5 -11 24 -23 43 -23 34 -54 88 -93 160 -11 19
-21 37 -24 40 -3 3 -10 14 -16 25 -6 11 -26 47 -44 80 -18 33 -38 69 -44 80
-6 11 -18 27 -27 35 -8 8 -24 31 -35 50 -10 19 -25 39 -31 43 -7 4 -13 13 -13
20 0 7 -14 27 -30 45 -16 19 -39 47 -52 63 -46 59 -83 104 -107 126 -13 13
-22 23 -19 23 14 0 -180 184 -290 275 -13 11 -32 27 -41 35 -9 8 -77 62 -151
120 -142 111 -247 211 -270 257 -8 15 -29 51 -46 79 -17 28 -34 59 -38 70 -8
26 -46 68 -74 83 -29 16 -95 6 -116 -17 -8 -10 -19 -28 -24 -41 -8 -24 -9 -24
-30 11 -12 20 -22 40 -22 47 0 6 -4 11 -9 11 -5 0 -11 8 -14 18 -6 17 -48 93
-57 102 -3 3 -10 14 -16 25 -6 11 -26 47 -44 80 -18 33 -38 69 -44 80 -6 11
-13 22 -16 25 -5 5 -34 57 -58 105 -8 17 -23 41 -33 55 -17 26 -55 93 -92 163
l-20 38 26 27 c15 15 30 42 33 61 4 18 17 39 30 47 13 9 28 32 35 52 7 20 16
40 21 43 5 3 205 7 445 8 397 1 435 0 423 -14 -7 -9 -13 -36 -13 -61 0 -35 6
-51 27 -73 32 -33 27 -32 191 -36 72 -2 144 -6 160 -9 69 -12 89 -18 121 -31
19 -8 34 -11 34 -8 0 3 11 -2 25 -11 14 -9 25 -14 25 -11 0 3 15 -2 33 -12 17
-9 38 -18 45 -20 6 -2 18 -4 25 -6 6 -2 27 -11 45 -20 17 -10 32 -15 32 -12 0
3 11 -2 25 -11 14 -9 25 -13 25 -9 0 4 12 0 26 -10 14 -9 34 -18 45 -21 10 -2
27 -6 37 -8 10 -2 36 -12 58 -21 21 -9 47 -19 57 -21 9 -2 25 -6 35 -8 9 -2
34 -12 54 -20 21 -9 41 -15 45 -14 5 1 28 -4 53 -12 25 -7 52 -14 60 -15 8 -1
31 -5 50 -10 19 -5 42 -9 50 -10 8 -1 31 -5 50 -9 19 -4 51 -9 70 -11 19 -2
55 -6 80 -9 125 -14 300 -19 768 -20 l512 -1 0 -59 c0 -85 18 -135 68 -184 24
-24 46 -42 48 -39 3 3 30 -6 60 -19 30 -13 54 -21 54 -19 0 3 14 -1 30 -10 17
-9 30 -14 30 -11 0 2 30 -7 68 -21 64 -24 78 -28 122 -37 11 -3 25 -8 31 -12
18 -11 103 -8 127 5 12 6 22 9 22 5 0 -3 11 1 25 10 14 9 25 13 25 9 0 -4 20
13 45 37 98 96 106 148 66 445 -43 321 -43 851 0 1153 40 280 29 351 -65 442
-25 24 -46 41 -46 37 0 -4 -11 0 -24 8 -46 30 -124 36 -196 15 -25 -8 -47 -14
-50 -15 -3 0 -36 -11 -75 -25 -38 -13 -71 -23 -72 -22 -1 0 -33 -11 -70 -25
-37 -13 -76 -26 -86 -28 -32 -7 -92 -57 -111 -94 -12 -23 -21 -64 -24 -116
l-4 -80 -562 -1 c-308 0 -597 -4 -641 -8 -44 -4 -92 -8 -107 -9 -16 0 -28 -3
-28 -6 0 -3 -12 -7 -27 -7 -16 -1 -46 -4 -68 -7 -39 -5 -55 -8 -120 -24 -16
-4 -34 -6 -38 -5 -4 1 -16 -2 -25 -7 -9 -5 -30 -11 -47 -14 -16 -3 -44 -10
-62 -15 -17 -6 -34 -8 -37 -4 -3 3 -6 0 -6 -6 0 -7 -3 -11 -7 -10 -5 1 -39 -9
-78 -22 -38 -13 -72 -25 -75 -25 -37 -9 -60 -18 -60 -24 0 -4 -11 -8 -25 -9
-14 -1 -37 -9 -50 -18 -14 -9 -25 -13 -25 -10 0 4 -12 1 -27 -7 -28 -15 -84
-38 -93 -39 -3 -1 -36 -14 -74 -30 -38 -17 -77 -32 -87 -34 -11 -2 -29 -7 -41
-10 -72 -18 -117 -23 -246 -24 -142 -2 -144 -2 -175 -29 -26 -24 -30 -35 -30
-76 0 -33 5 -52 16 -60 10 -7 17 -15 17 -19 0 -4 -205 -6 -455 -4 l-455 3 -6
32 c-3 18 -17 43 -30 56 -13 12 -24 33 -24 47 0 27 -21 64 -54 93 -18 16 -19
20 -6 40 7 12 20 36 28 52 9 17 23 41 32 55 17 24 49 80 86 150 11 19 21 37
24 40 3 3 14 23 25 45 11 22 22 42 25 45 4 4 24 39 54 95 6 11 13 22 16 25 3
3 14 23 25 45 11 22 22 42 25 45 3 3 14 21 24 40 11 19 24 44 30 54 23 42 29
43 57 12 24 -28 34 -31 81 -31 40 1 59 6 73 21 25 25 75 101 75 113 0 13 32
71 50 91 8 9 24 28 35 44 34 46 88 101 140 142 28 21 52 42 53 47 2 4 9 7 16
7 6 0 18 8 27 18 8 9 30 28 48 42 18 14 46 37 62 53 17 15 33 27 37 27 4 0 27
18 52 40 25 23 74 66 109 98 75 66 165 156 193 192 11 14 36 43 57 65 20 22
50 58 67 80 37 50 40 55 64 84 11 13 20 27 20 31 0 3 8 15 19 26 10 11 33 47
51 79 18 32 40 67 49 76 9 10 25 35 36 56 11 21 22 40 25 43 3 3 14 23 25 45
11 22 22 42 25 45 4 4 24 38 54 95 6 11 13 22 16 25 3 3 13 21 24 40 39 72 70
126 93 160 12 19 23 40 23 47 0 7 4 13 9 13 5 0 11 8 14 18 6 17 48 93 57 102
3 3 14 23 25 45 11 22 23 42 28 43 4 2 7 8 7 12 0 5 10 25 21 45 l21 36 55
-31 c58 -33 129 -47 185 -36 32 6 126 77 214 161 17 16 53 49 80 71 94 80 112
103 139 179 28 79 -7 228 -65 271 -8 7 -28 24 -45 38 -16 14 -37 26 -45 26 -9
0 -24 6 -35 13 -11 8 -60 30 -110 49 -49 20 -133 57 -186 82 -53 25 -100 46
-103 46 -4 0 -48 24 -99 53 -51 30 -117 66 -147 82 -30 15 -73 40 -95 55 -22
15 -74 46 -115 70 -41 24 -77 47 -78 52 -2 5 -18 16 -35 25 -18 8 -39 22 -47
30 -8 8 -38 28 -65 46 -28 18 -71 49 -95 70 -116 97 -204 149 -275 163 -38 7
-175 -22 -175 -37 0 -5 -6 -9 -12 -9 -19 0 -87 -76 -103 -113 -7 -18 -16 -45
-19 -62 -9 -51 -16 -88 -32 -155 -50 -211 -53 -261 -24 -324 23 -48 47 -72
113 -110 26 -15 47 -30 47 -33 0 -6 -33 -66 -40 -73 -4 -4 -24 -39 -54 -95 -6
-11 -13 -22 -16 -25 -5 -5 -33 -55 -58 -105 -9 -16 -30 -52 -49 -80 -18 -27
-33 -55 -33 -62 0 -7 -3 -13 -8 -13 -4 0 -16 -20 -27 -45 -11 -25 -23 -45 -27
-45 -5 0 -8 -7 -8 -15 0 -8 -3 -15 -7 -15 -5 0 -17 -19 -28 -43 -11 -23 -22
-44 -25 -47 -4 -4 -24 -38 -54 -95 -6 -11 -13 -22 -16 -25 -10 -10 -180 -337
-182 -350 -1 -9 -10 -35 -18 -55 -4 -11 -18 -45 -30 -75 -12 -30 -23 -59 -25
-65 -2 -11 -12 -38 -26 -73 -5 -13 -9 -34 -9 -47 0 -14 -4 -25 -9 -25 -5 0
-11 -15 -14 -32 -3 -18 -8 -44 -12 -58 -4 -14 -11 -50 -16 -80 -11 -65 -16
-86 -24 -120 -8 -31 -11 -50 -20 -120 -4 -30 -9 -66 -11 -80 -2 -14 -6 -41 -8
-60 -23 -191 -73 -367 -116 -410 -5 -5 -6 -7 -62 -110 -42 -77 -43 -119 -5
-158 19 -18 39 -26 69 -28 24 -2 44 -3 46 -3 2 -1 -6 -14 -17 -30 -12 -16 -21
-32 -21 -35 0 -4 -18 -35 -40 -70 -22 -35 -40 -68 -40 -75 0 -6 -4 -11 -9 -11
-5 0 -11 -8 -14 -17 -6 -18 -48 -94 -57 -103 -4 -4 -24 -39 -54 -95 -6 -11
-13 -22 -16 -25 -4 -4 -15 -22 -54 -95 -6 -10 -17 -25 -23 -33 -7 -7 -13 -18
-13 -23 0 -5 -16 -33 -35 -63 -19 -30 -35 -59 -35 -64 0 -21 -27 -32 -54 -22
-19 7 -37 6 -64 -3 -30 -10 -44 -10 -75 0 -26 9 -45 10 -63 3 -27 -10 -54 1
-54 22 0 5 -16 34 -35 64 -19 30 -35 58 -35 63 0 5 -6 16 -12 23 -12 12 -28
39 -62 103 -6 11 -13 22 -16 25 -4 4 -24 39 -54 95 -6 11 -13 22 -16 25 -9 9
-51 85 -57 103 -3 9 -9 17 -14 17 -5 0 -9 5 -9 11 0 7 -18 40 -40 75 -22 35
-40 66 -40 70 0 3 -9 19 -21 35 -11 16 -19 29 -17 30 2 0 22 1 46 3 30 2 50
10 69 28 38 39 37 81 -5 158 -56 103 -57 105 -62 110 -43 43 -93 219 -116 410
-2 19 -6 46 -8 60 -2 14 -7 50 -11 80 -9 70 -12 89 -20 120 -8 34 -13 55 -24
120 -5 30 -12 66 -16 80 -4 14 -9 40 -12 58 -3 17 -9 32 -14 32 -5 0 -9 11 -9
25 0 13 -4 34 -9 47 -14 35 -24 62 -26 73 -2 6 -13 35 -25 65 -12 30 -26 64
-30 75 -8 19 -15 40 -19 57 -5 19 -171 338 -181 348 -4 4 -24 39 -54 95 -6 11
-13 22 -16 25 -3 3 -14 24 -25 47 -11 24 -23 43 -27 43 -5 0 -8 7 -8 15 0 8
-3 15 -7 15 -5 0 -17 20 -28 45 -11 25 -23 45 -27 45 -5 0 -8 6 -8 13 0 7 -15
35 -33 62 -19 28 -40 64 -49 80 -25 50 -53 100 -58 105 -4 4 -24 39 -54 95 -6
11 -13 22 -16 25 -7 7 -40 67 -40 73 0 3 21 18 48 33 65 38 89 62 112 110 29
63 26 113 -24 324 -16 67 -23 104 -32 155 -3 17 -12 44 -19 62 -16 37 -84 113
-102 113 -7 0 -13 4 -13 9 0 10 -117 41 -152 41 -13 -1 -47 -9 -76 -20z m124
-208 c12 -8 24 -37 30 -72 2 -14 13 -65 23 -115 36 -170 40 -190 33 -197 -6
-5 -1001 -582 -1253 -726 l-56 -32 -31 28 c-16 15 -52 46 -79 68 -26 23 -60
52 -74 65 -15 13 -43 38 -63 56 -21 19 -36 42 -36 55 0 24 36 68 55 68 7 0 46
15 86 34 41 18 78 34 82 34 7 1 137 61 257 120 132 64 577 326 620 364 8 7 37
28 65 45 60 39 87 59 123 90 15 13 45 36 67 50 22 15 53 38 68 50 29 23 62 29
83 15z m3361 -15 c15 -12 46 -35 68 -50 22 -14 52 -37 67 -50 36 -31 63 -51
123 -90 28 -17 57 -38 65 -45 43 -38 488 -300 620 -364 119 -58 250 -119 252
-118 2 1 38 -14 82 -34 43 -20 83 -36 89 -36 20 0 57 -43 57 -67 0 -15 -14
-36 -36 -56 -20 -18 -48 -43 -63 -56 -14 -13 -48 -42 -74 -65 -27 -22 -63 -53
-79 -68 l-31 -28 -56 32 c-252 144 -1247 721 -1253 726 -7 7 -3 27 33 197 10
50 21 101 23 115 14 82 56 103 113 57z m-3381 -764 c10 -21 34 -61 52 -90 17
-29 32 -57 32 -63 0 -5 4 -10 9 -10 5 0 11 -8 14 -17 3 -10 20 -43 37 -73 18
-30 39 -68 49 -85 9 -16 18 -32 21 -35 3 -3 10 -14 16 -25 31 -57 50 -91 54
-95 3 -3 11 -16 18 -30 18 -37 48 -88 61 -104 9 -11 4 -18 -26 -34 -21 -11
-202 -115 -402 -230 -354 -205 -365 -210 -376 -189 -6 12 -23 42 -37 67 -14
25 -34 61 -44 80 -11 19 -21 37 -24 40 -4 4 -24 39 -54 95 -6 11 -13 22 -16
25 -3 3 -10 14 -16 25 -30 57 -50 91 -54 95 -3 3 -14 24 -25 47 -11 24 -23 43
-27 43 -5 0 -8 5 -8 10 0 6 -18 39 -40 74 -22 35 -40 67 -40 72 1 16 784 462
796 453 6 -5 19 -26 30 -46z m3966 -297 c98 -55 178 -105 178 -110 0 -5 -18
-37 -40 -72 -22 -35 -40 -68 -40 -74 0 -5 -3 -10 -7 -10 -5 0 -17 -19 -28 -43
-11 -23 -22 -44 -25 -47 -3 -3 -10 -14 -16 -25 -30 -56 -50 -91 -54 -95 -3 -3
-10 -14 -16 -25 -30 -56 -50 -91 -54 -95 -3 -3 -13 -21 -24 -40 -10 -19 -30
-55 -44 -80 -14 -25 -31 -55 -37 -67 -11 -21 -22 -16 -376 189 -200 115 -381
219 -402 230 -30 16 -35 23 -26 34 13 16 43 67 61 104 7 14 15 27 18 30 3 3
10 14 16 25 30 56 50 91 54 95 3 3 12 19 21 35 10 17 31 55 49 85 17 30 34 63
37 73 3 9 9 17 14 17 5 0 9 5 9 10 0 6 16 36 35 66 19 30 35 58 35 62 0 4 11
24 25 44 l25 37 218 -126 c119 -69 297 -171 394 -227z m-3459 -595 c15 -32 27
-63 27 -69 0 -5 4 -12 9 -14 5 -1 11 -12 13 -23 1 -11 6 -22 9 -25 16 -14 109
-263 112 -302 1 -10 4 -18 8 -18 4 0 10 -17 15 -37 9 -46 8 -43 17 -68 8 -25
17 -70 22 -110 2 -16 6 -41 10 -55 5 -22 33 -204 50 -325 3 -22 8 -48 11 -57
3 -10 7 -35 9 -55 2 -21 6 -51 10 -68 7 -29 6 -28 -20 10 -53 77 -60 82 -116
79 -31 -1 -58 -8 -67 -18 -23 -22 -43 -95 -32 -115 5 -9 15 -31 22 -48 7 -18
17 -33 21 -33 5 0 6 -4 2 -10 -3 -5 -24 10 -46 33 -23 22 -53 50 -69 62 -54
39 -235 179 -255 196 -97 86 -139 125 -212 196 -45 46 -83 85 -83 87 0 3 -12
18 -27 34 -16 15 -39 43 -53 61 -14 18 -30 38 -35 44 -6 7 -19 25 -30 41 -11
16 -29 41 -40 57 -51 70 -105 149 -105 153 0 3 12 11 28 18 60 31 718 412 732
424 24 23 34 16 63 -45z m2375 40 c28 -20 676 -394 725 -419 15 -7 27 -15 27
-18 0 -4 -54 -83 -105 -153 -11 -16 -29 -41 -40 -57 -11 -16 -24 -34 -30 -41
-5 -6 -21 -26 -35 -44 -14 -18 -37 -46 -52 -61 -16 -16 -28 -31 -28 -34 0 -2
-38 -41 -83 -87 -73 -71 -115 -110 -212 -196 -20 -17 -201 -157 -255 -196 -16
-12 -46 -40 -69 -62 -22 -23 -43 -38 -46 -33 -4 6 -3 10 2 10 4 0 14 15 21 33
7 17 17 39 22 48 11 20 -9 93 -32 115 -9 10 -36 17 -67 18 -56 3 -63 -2 -116
-79 -26 -38 -27 -39 -20 -10 4 17 8 47 10 68 2 20 6 45 9 55 3 9 8 35 11 57
17 121 45 303 50 325 4 14 8 39 10 55 5 40 14 85 22 110 9 25 8 22 17 68 5 20
11 37 15 37 4 0 7 8 8 18 3 39 96 288 112 302 3 3 8 14 9 25 2 11 8 22 13 23
5 2 9 9 9 14 0 18 54 127 63 128 4 0 20 -9 35 -19z m-5896 -2114 c37 -14 69
-22 72 -19 3 3 6 1 6 -5 0 -5 6 -10 13 -11 23 -1 53 -10 93 -27 21 -9 46 -18
54 -19 13 -3 15 -95 15 -766 0 -671 -2 -763 -15 -766 -8 -1 -33 -10 -54 -19
-22 -9 -48 -19 -58 -21 -10 -2 -27 -6 -37 -8 -11 -3 -29 -10 -40 -16 -12 -6
-21 -8 -21 -6 0 3 -21 -4 -47 -15 -106 -46 -129 -32 -126 77 2 42 7 102 13
133 20 107 40 427 40 645 0 234 -12 435 -35 606 -28 207 -29 226 -7 248 23 23
45 22 134 -11z m9496 6 c14 -20 12 -58 -13 -243 -23 -171 -35 -372 -35 -606 0
-218 20 -538 40 -645 6 -31 11 -91 13 -133 3 -109 -20 -123 -125 -77 -27 11
-48 18 -48 15 0 -2 -9 0 -21 6 -11 6 -29 13 -40 16 -10 2 -27 6 -37 8 -10 2
-36 12 -58 21 -21 9 -46 18 -54 19 -13 3 -15 95 -15 766 0 671 2 763 15 766 8
1 33 10 54 19 40 17 70 26 94 27 6 1 12 6 12 11 0 6 3 8 6 5 4 -5 132 36 141
46 10 9 59 -5 71 -21z m-8220 -392 c9 -1 12 -100 12 -459 l0 -458 -405 1 -405
0 0 456 c0 296 4 459 10 461 9 3 753 2 788 -1z m7595 0 c4 -1 7 -207 7 -459
l0 -457 -405 0 -405 -1 0 458 c0 419 1 457 17 460 14 3 765 2 786 -1z m-7158
-17 c28 -2 62 -6 77 -8 44 -7 111 -18 133 -23 11 -2 35 -6 54 -9 18 -2 41 -9
51 -14 9 -5 19 -7 22 -5 2 3 20 0 39 -6 19 -5 41 -12 49 -14 8 -2 29 -8 47
-14 17 -5 34 -7 37 -3 3 3 6 0 6 -6 0 -7 3 -11 8 -10 4 1 16 -3 27 -9 11 -6
23 -11 28 -12 26 -3 75 -20 165 -57 56 -24 105 -43 107 -43 3 0 19 -8 35 -16
17 -9 30 -13 30 -9 0 4 6 1 14 -5 8 -7 25 -14 37 -17 13 -3 29 -6 34 -8 6 -1
25 -10 42 -19 18 -10 35 -17 38 -17 20 1 25 -1 25 -7 0 -5 -28 -7 -61 -6 -57
1 -64 -1 -89 -29 -71 -77 -31 -172 78 -185 47 -5 71 -18 40 -21 -27 -1 -57
-12 -185 -66 -73 -30 -133 -53 -133 -50 0 2 -11 -3 -24 -11 -13 -9 -34 -18
-47 -21 -13 -3 -28 -6 -34 -8 -5 -1 -20 -8 -33 -15 -13 -7 -32 -14 -43 -17
-10 -2 -28 -6 -38 -8 -11 -3 -29 -10 -41 -16 -11 -6 -33 -13 -48 -15 -15 -2
-46 -10 -69 -18 -22 -9 -43 -13 -46 -11 -2 3 -16 0 -31 -6 -29 -11 -66 -19
-111 -25 -16 -2 -50 -7 -75 -10 -85 -11 -105 -13 -175 -19 -38 -4 -89 -8 -112
-11 l-43 -4 0 459 0 460 83 -6 c45 -3 105 -7 132 -10z m6145 -444 l0 -459 -43
4 c-23 3 -73 7 -112 11 -73 6 -119 11 -170 19 -16 2 -48 6 -70 9 -55 7 -90 15
-121 26 -15 6 -29 9 -31 6 -3 -2 -24 2 -46 11 -23 8 -54 16 -69 18 -15 2 -37
9 -48 15 -12 6 -30 13 -41 16 -10 2 -28 6 -38 8 -11 3 -30 10 -43 17 -13 7
-27 14 -33 15 -5 2 -21 5 -34 8 -13 3 -34 12 -47 21 -13 8 -24 13 -24 11 0 -3
-60 20 -132 50 -129 54 -159 65 -185 66 -32 3 -8 16 39 21 109 13 149 108 78
185 -25 28 -32 30 -89 29 -33 -1 -61 1 -61 6 0 6 5 8 25 7 3 0 20 7 38 17 17
9 37 18 42 19 6 2 21 5 34 8 12 3 29 10 37 17 8 6 14 9 14 5 0 -4 13 0 30 9
16 8 32 16 35 16 2 0 51 19 107 43 94 39 154 59 160 54 2 -1 14 5 28 12 14 8
28 13 33 12 4 -1 7 3 7 10 0 6 3 9 6 6 3 -4 20 -2 37 3 18 6 39 12 47 14 8 2
30 9 49 14 19 6 37 9 39 6 3 -2 13 0 22 5 10 5 33 12 51 14 19 3 43 7 54 9 20
5 81 15 133 23 15 2 65 7 112 10 47 3 86 7 87 8 2 1 23 3 48 3 l45 1 0 -458z
m-3062 81 c17 -32 32 -64 32 -71 0 -6 -18 -43 -40 -81 l-41 -69 -74 0 -74 0
-41 69 c-22 38 -40 75 -40 81 0 7 15 39 32 71 l33 59 90 0 90 0 33 -59z
m-1175 -1673 c-10 -18 -20 -35 -23 -38 -22 -22 -1 -104 34 -130 33 -24 48 -27
91 -17 37 9 84 49 85 73 0 5 7 19 15 30 15 18 15 18 11 -6 -3 -14 -8 -36 -11
-50 -3 -14 -8 -38 -11 -55 -2 -16 -9 -60 -15 -97 -6 -37 -12 -78 -14 -90 -8
-72 -17 -134 -21 -152 -3 -12 -7 -39 -10 -61 -3 -21 -7 -42 -9 -45 -2 -4 -7
-29 -11 -56 -3 -27 -10 -57 -15 -66 -5 -9 -12 -34 -15 -55 -3 -21 -10 -45 -14
-53 -4 -8 -10 -26 -11 -40 -2 -14 -6 -27 -9 -30 -5 -5 -48 -121 -54 -145 -3
-13 -30 -72 -78 -170 -21 -44 -38 -84 -38 -90 -1 -5 -7 -19 -15 -29 -13 -18
-16 -18 -32 -4 -20 17 -718 421 -745 431 -10 3 -18 13 -18 20 0 8 42 73 94
145 100 140 106 147 149 193 15 16 27 32 27 34 0 6 187 190 227 224 15 14 66
55 113 93 47 38 96 78 108 88 13 11 26 20 29 20 3 0 16 11 29 25 13 14 27 25
31 25 4 0 22 14 40 30 18 17 37 30 43 30 6 0 9 4 5 9 -3 5 3 12 14 16 11 3 22
13 25 22 4 9 9 13 12 10 3 -3 -2 -21 -13 -39z m2138 2 c6 0 7 -4 4 -10 -3 -5
-1 -10 5 -10 6 0 25 -13 43 -30 18 -16 36 -30 40 -30 4 0 18 -11 31 -25 13
-14 26 -25 29 -25 3 0 16 -9 29 -20 12 -10 61 -50 108 -88 47 -38 98 -79 113
-93 40 -34 227 -218 227 -224 0 -2 12 -18 28 -34 42 -46 48 -53 148 -193 52
-72 94 -137 94 -145 0 -7 -8 -17 -17 -20 -28 -10 -726 -414 -746 -431 -16 -14
-19 -14 -32 4 -8 10 -14 24 -15 29 0 6 -17 46 -38 90 -48 98 -75 157 -78 170
-6 24 -49 140 -54 145 -3 3 -7 16 -9 30 -1 14 -7 32 -11 40 -4 8 -11 32 -14
53 -3 21 -10 46 -15 55 -5 9 -12 39 -15 66 -4 27 -9 52 -11 56 -2 3 -6 24 -9
45 -3 22 -7 49 -10 61 -4 18 -13 80 -21 152 -2 12 -8 53 -14 90 -6 37 -13 81
-15 97 -3 17 -8 41 -11 55 -3 14 -8 36 -11 50 -4 24 -4 24 11 6 8 -11 15 -25
15 -30 1 -24 48 -64 85 -73 43 -10 58 -7 91 17 35 26 56 108 34 130 -9 9 -40
68 -40 76 0 4 9 -2 20 -14 12 -12 25 -22 31 -22z m-2785 -1349 c214 -124 391
-227 394 -229 3 -3 -1 -7 -7 -9 -7 -3 -13 -9 -13 -15 0 -5 -8 -22 -19 -36 -15
-23 -39 -64 -95 -167 -6 -11 -13 -22 -16 -25 -3 -3 -10 -14 -16 -25 -30 -56
-50 -91 -54 -95 -3 -3 -13 -21 -24 -40 -38 -71 -69 -126 -86 -150 -9 -14 -25
-41 -34 -60 -40 -84 -2 -97 -428 149 -211 122 -389 225 -397 230 -14 9 3 44
101 202 15 25 28 51 28 57 0 7 4 12 9 12 5 0 11 8 14 18 6 17 48 93 57 102 3
3 12 19 21 35 10 17 31 55 49 85 17 30 34 63 37 73 3 9 9 17 14 17 5 0 9 5 9
10 0 17 50 92 59 88 5 -2 183 -104 397 -227z m3829 189 c14 -22 25 -44 25 -50
0 -5 4 -10 9 -10 5 0 11 -8 14 -17 3 -10 20 -43 37 -73 18 -30 39 -68 49 -85
9 -16 18 -32 21 -35 9 -9 51 -85 57 -102 3 -10 9 -18 14 -18 5 0 9 -5 9 -12 0
-6 13 -32 28 -57 98 -158 115 -193 101 -202 -8 -5 -186 -108 -397 -230 -426
-246 -388 -233 -428 -149 -9 19 -25 46 -34 60 -17 24 -48 79 -86 150 -11 19
-21 37 -24 40 -3 3 -10 14 -16 25 -30 56 -50 91 -54 95 -3 3 -10 14 -16 25
-56 103 -80 144 -95 167 -11 14 -19 31 -19 36 0 6 -6 13 -12 16 -8 4 -9 8 -3
11 6 3 183 106 395 229 212 123 388 225 392 225 4 1 19 -17 33 -39z m-4344
-1078 c424 -245 653 -383 652 -392 -1 -8 -4 -24 -6 -35 -2 -11 -7 -36 -11 -55
-3 -19 -8 -45 -11 -58 -3 -12 -7 -32 -10 -45 -3 -12 -10 -49 -16 -82 -14 -82
-32 -107 -70 -101 -16 2 -43 16 -60 30 -17 14 -34 26 -37 26 -4 0 -23 14 -42
30 -19 16 -41 35 -49 41 -7 7 -50 37 -94 67 -44 30 -87 61 -95 68 -8 8 -28 22
-45 30 -18 9 -41 24 -52 34 -40 35 -580 337 -592 331 -2 0 -44 19 -94 44 -50
25 -96 45 -101 45 -6 0 -47 16 -92 36 -73 32 -126 71 -126 93 0 15 175 181
248 235 18 13 29 26 25 29 -37 37 121 -49 678 -371z m5106 371 c-4 -3 7 -16
25 -29 73 -54 248 -220 248 -235 0 -22 -53 -61 -126 -93 -45 -20 -86 -36 -92
-36 -5 0 -52 -21 -103 -46 -52 -26 -96 -47 -99 -47 -24 -1 -546 -293 -585
-327 -11 -10 -34 -25 -52 -34 -17 -8 -37 -22 -45 -30 -8 -7 -51 -38 -95 -68
-44 -30 -87 -60 -94 -67 -8 -6 -30 -25 -49 -41 -19 -16 -38 -30 -42 -30 -3 0
-20 -12 -37 -26 -17 -14 -44 -28 -60 -30 -38 -6 -56 19 -70 101 -6 33 -13 70
-16 83 -3 12 -7 32 -10 45 -3 12 -8 38 -11 57 -4 19 -9 44 -11 55 -2 11 -5 27
-6 35 -2 16 1284 767 1317 769 11 1 16 -2 13 -6z"/>
</g>
</svg>
